<?xml version="1.0" ?><svg height="25px" version="1.1" viewBox="0 0 25 25" width="25px" xmlns="http://www.w3.org/2000/svg" xmlns:sketch="http://www.bohemiancoding.com/sketch/ns" xmlns:xlink="http://www.w3.org/1999/xlink"><title/><desc/><defs/><g fill="none" fill-rule="evenodd" id="TabBar-Icons" stroke="none" stroke-width="1"><g fill="#000000" id="Check-Circle"><path d="M12.5,25 C19.4035594,25 25,19.4035594 25,12.5 C25,5.59644063 19.4035594,0 12.5,0 C5.59644063,0 0,5.59644063 0,12.5 C0,19.4035594 5.59644063,25 12.5,25 L12.5,25 Z M12.5,24 C18.8512746,24 24,18.8512746 24,12.5 C24,6.14872538 18.8512746,1 12.5,1 C6.14872538,1 1,6.14872538 1,12.5 C1,18.8512746 6.14872538,24 12.5,24 Z M9.5007864,16.7921068 L5.37867966,12.6700001 L4.67157288,13.3771069 L9.62132034,18.3268543 L10.3284271,17.6197475 L10.2078932,17.4992136 L20.1568542,7.55025253 L19.4497475,6.84314575 L9.5007864,16.7921068 Z"/></g></g></svg>